<svg xmlns="http://www.w3.org/2000/svg" viewBox="0 0 445.52 514.3"><defs><style>.cls-1{fill:#0e113b;}.cls-1,.cls-2,.cls-3,.cls-4{stroke:#231f20;stroke-miterlimit:10;}.cls-2{fill:#fff;}.cls-3{fill:#f3bd60;}.cls-4{fill:#8b5e3c;}</style></defs><g id="Layer_2" data-name="Layer 2"><g id="Layer_1-2" data-name="Layer 1"><circle class="cls-1" cx="209.43" cy="304.87" r="208.93"/><path class="cls-2" d="M241.62,461.46,247,471,78.35,426.87l7.33-27.76,122.75,36.1A56.54,56.54,0,0,1,241.62,461.46Z"/><path class="cls-2" d="M245.43,473.1l4.65-11a80.57,80.57,0,0,1,43.21-43.09l127.9-53.26,1.29,3.33L288,427.18Z"/><path class="cls-2" d="M245.43,471.15l5.43-10.49a78.75,78.75,0,0,1,45.87-39L426.58,380l9.27,31.6Z"/><rect class="cls-3" x="346.67" y="345.12" width="5.76" height="197.05" transform="translate(676.82 -16.68) rotate(73.65)"/><rect class="cls-3" x="148.2" y="367.53" width="5.76" height="169.91" transform="translate(625.81 405.62) rotate(102.83)"/><path class="cls-3" d="M225.69,192.32,172.85,392.46l8.08,2.14,40.86-154.74A16,16,0,0,1,252.73,248L211.87,402.77l7.38,2L272.1,204.57Z"/><path class="cls-3" d="M175.11,194.59l-44.4,168.17,7.92,2.09L171.54,240.2a16,16,0,0,1,19.55-11.38h0a16,16,0,0,1,11.39,19.55L169.57,373l7.76,2.05,44.4-168.17Z"/><path class="cls-3" d="M375,.65,239.79,327.37l4.68,1.93,116-280.4A19,19,0,0,1,385.3,38.61h0a19,19,0,0,1,10.29,24.82l-116,280.4,4.76,2L419.51,19.08Z"/><polygon class="cls-3" points="135.84 202.32 98.99 341.86 104.8 343.39 106.14 338.32 129.34 344.45 128 349.52 133.8 351.05 170.64 211.51 135.84 202.32"/><path class="cls-2" d="M326.46,15.76h0a19,19,0,0,1,19,19V345.14a0,0,0,0,1,0,0h-38a0,0,0,0,1,0,0V34.76a19,19,0,0,1,19-19Z" transform="translate(93.78 -111.1) rotate(22.48)"/><path class="cls-2" d="M222.32,206.3h0a16,16,0,0,1,16,16V397.73a0,0,0,0,1,0,0h-32a0,0,0,0,1,0,0V222.3A16,16,0,0,1,222.32,206.3Z" transform="translate(84.46 -46.75) rotate(14.79)"/><path class="cls-2" d="M174.91,213.21h0a16,16,0,0,1,16,16V366.38a0,0,0,0,1,0,0h-32a0,0,0,0,1,0,0V229.21A16,16,0,0,1,174.91,213.21Z" transform="translate(79.77 -35.05) rotate(14.79)"/><path class="cls-2" d="M133.52,216.88h0a12,12,0,0,1,12,12V346.27a0,0,0,0,1,0,0h-24a0,0,0,0,1,0,0V228.88A12,12,0,0,1,133.52,216.88Z" transform="translate(76.3 -24.76) rotate(14.79)"/><rect class="cls-4" x="233.12" y="468.15" width="22.67" height="6"/></g></g></svg>